<svg width="48" height="48" viewBox="0 0 48 48" fill="none" xmlns="http://www.w3.org/2000/svg">
<g id="IMAGE" clip-path="url(#clip0_2_2164)">
<path id="Vector" d="M24 0L26.0838 12.1823L32.2085 1.44738L30 13.6077L39.427 5.61492L33.1925 16.2866L44.7848 12L35.2763 19.8958L47.6353 19.8324L36 24L47.6353 28.1676L35.2763 28.1042L44.7848 36L33.1925 31.7134L39.427 42.3852L30 34.3923L32.2085 46.5526L26.0838 35.8177L24 48L21.9162 35.8177L15.7915 46.5526L18 34.3923L8.5731 42.3852L14.8075 31.7134L3.21538 36L12.7237 28.1042L0.364609 28.1676L12 24L0.364609 19.8324L12.7237 19.8958L3.21538 12L14.8075 16.2866L8.5731 5.61492L18 13.6077L15.7915 1.44738L21.9162 12.1823L24 0Z" fill="#ECE8D9"/>
</g>
<defs>
<clipPath id="clip0_2_2164">
<rect width="48" height="48" fill="white"/>
</clipPath>
</defs>
</svg>
